# Alias|Wavefront Geometry File (OBJ)

mtllib tile9.mtl


# vertices : 19
v -18.0205 -17.1392 0
v -14.2167 -11.3171 0
v -10.8787 -16.9063 0
v -9.70607 -4.80402 0
v -5.22524 -4.92428 0
v -1.51271 0.268758 0
v -9.59901 0.16023 0
v -9.60803 5.09814 0
v 1.22659 5.03149 0
v 4.40085 10.7204 0
v -9.78795 10.3377 0
v 10.0002 -5.19618 0
v 9.79236 0.220071 0
v 7.77539 0.227245 0
v 7.97893 -5.12725 0
v 9.80412 4.90206 0
v 7.78411 4.96134 0
v 9.61888 10.4869 0
v 7.68523 10.6777 0

# normals : 2
vn 0 0 -1
vn 0 0 1

# uvs : 40
vt 0 1 0
vt 0 0 0
vt 1 0 0
vt 1 1 0
vt 0 0 0
vt 0 -0.227413 0
vt 0.347077 -0.417025 0
vt 0.327837 0 0
vt 0.653859 0 0
vt 0.327837 0 0
vt 0.347077 -0.417025 0
vt 0.645803 -0.558105 0
vt 0.653859 0 0
vt 0.645803 -0.558105 0
vt 1 -0.730832 0
vt 1 0 0
vt 0 -1 0
vt 0.345455 -1 0
vt 0.338929 -0.89599 0
vt 0 -0.897393 0
vt 0.643859 -1 0
vt 0.638372 -0.895904 0
vt 0.338929 -0.89599 0
vt 0.345455 -1 0
vt 0.643859 -1 0
vt 1 -1 0
vt 1 -0.899955 0
vt 0.638372 -0.895904 0
vt 0.645803 -0.558105 0
vt 0.347077 -0.417025 0
vt 0.338929 -0.89599 0
vt 0.638372 -0.895904 0
vt 0.645803 -0.558105 0
vt 0.638372 -0.895904 0
vt 1 -0.899955 0
vt 1 -0.730832 0
vt 0 -0.227413 0
vt 0 -0.897393 0
vt 0.338929 -0.89599 0
vt 0.347077 -0.417025 0

# faces : 10
usemtl default
f 1/1/1 2/2/1 3/3/1 1/4/1
